# xmcd CD database file
#
# Track frame offsets:
#	150
#	13567
#	26338
#	39931
#	53521
#	67292
#	80792
#	92345
#	105307
#	116674
#	130255
#	144094
#	159209
#	174388
#	186451
#	200478
#	215045
#	224890
#	239795
#	254063
#
# Disc length: 3569 seconds
#
# Revision: 0
# Processed by: cddbd v1.5.2PL0 Copyright (c) Steve Scherf et al.
# Submitted via: CDex 1.51
#
DISCID=240def14
DTITLE=Peggy Lee - The Definitive Collection 1942-1953 - CD2
DYEAR=2005
DGENRE=Jazz
TTITLE0=Manana
TTITLE1=Bye Bye Blus
TTITLE2=I'll Dance At Your Wedding
TTITLE3=Golden Earrings
TTITLE4=Chi Baba, Chi Baba (My Bambino Go To Sleep)
TTITLE5=Everything's Movin' Too Fast
TTITLE6=I Can't Give You Anything But Love
TTITLE7=It's A Good Day
TTITLE8=Sugar
TTITLE9=It's All Over Now
TTITLE10=Linger In My Arms A Little Longer, Baby
TTITLE11=I Don't Know Enough About You
TTITLE12=I'm Confessin'
TTITLE13=I'm Glad I Waited For You
TTITLE14=Waitin' For The Train To Come In
TTITLE15=Why Don't You Do Right?
TTITLE16=Full Moon
TTITLE17=We'll Meet Again
TTITLE18=Somebody Else Is Taking My Place
TTITLE19=Winter Weather
EXTD=YEAR: 2005
EXTT0=
EXTT1=
EXTT2=
EXTT3=
EXTT4=
EXTT5=
EXTT6=
EXTT7=
EXTT8=
EXTT9=
EXTT10=
EXTT11=
EXTT12=
EXTT13=
EXTT14=
EXTT15=
EXTT16=
EXTT17=
EXTT18=
EXTT19=
PLAYORDER=
